<?xml version="1.0" encoding="UTF-8"?>
<svg version="1.1" xmlns="http://www.w3.org/2000/svg" width="512" height="512">
<path d="M0 0 C4.01571255 1.60859504 6.70479614 4.43640365 9.68652344 7.45947266 C10.24306107 8.01571823 10.79959869 8.57196381 11.3730011 9.14506531 C13.20657442 10.98002905 15.03296672 12.82196931 16.859375 14.6640625 C18.13117525 15.93959389 19.40341853 17.21468367 20.67608643 18.48934937 C24.02106258 21.84195395 27.35998851 25.20052173 30.69769287 28.56036377 C34.10602831 31.98917456 37.52004745 35.41231573 40.93359375 38.8359375 C47.62797297 45.55175272 54.31597466 52.27388094 61 59 C64.52031285 57.85115578 67.77972824 56.72565012 71.00390625 54.8984375 C101.61217717 37.95245964 137.39199531 27.08243028 172.5546875 26.76171875 C173.44584259 26.75197021 174.33699768 26.74222168 175.25515747 26.73217773 C195.18761858 26.55907589 214.42028315 26.82541776 234 31 C235.32547852 31.27287842 235.32547852 31.27287842 236.67773438 31.55126953 C277.90252828 40.25514583 316.20747531 60.31579232 347 89 C348.39144666 90.21338219 349.78708639 91.42197803 351.1875 92.625 C357.68110756 98.31340022 363.27528833 104.38978377 368.68359375 111.125 C370.17495378 112.9759966 371.68661746 114.81090849 373.22265625 116.625 C383.93124514 129.3166609 392.29319543 143.33557305 400 158 C400.34772461 158.6506543 400.69544922 159.30130859 401.05371094 159.97167969 C412.24695184 181.16785587 419.20672487 205.42525577 423 229 C423.256035 230.4941317 423.256035 230.4941317 423.51724243 232.01844788 C425.52688339 245.48042578 425.32935366 258.99834947 425.33451414 272.58104062 C425.33595047 274.71063767 425.34024725 276.8402101 425.34550858 278.96980095 C425.36391151 286.43064852 425.3721905 293.8914254 425.37060547 301.35229492 C425.36940295 308.25865724 425.39055192 315.16470767 425.4220928 322.0709911 C425.44838882 328.04603564 425.4589674 334.02097898 425.45769465 339.99608082 C425.45718942 343.54497556 425.46262692 347.09359147 425.48405075 350.64242744 C425.58326911 368.29323065 425.62785009 383.9805961 416.6875 399.6875 C413.92551009 404.08074652 413.92551009 404.08074652 413.22167969 409.00805664 C414.12452359 411.31869132 415.16599442 412.5106742 416.94140625 414.234375 C417.52470703 414.80800781 418.10800781 415.38164062 418.70898438 415.97265625 C419.32064453 416.55917969 419.93230469 417.14570313 420.5625 417.75 C421.48579102 418.65298828 421.48579102 418.65298828 422.42773438 419.57421875 C423.94514813 421.05634381 425.47170596 422.5290967 427 424 C425.41219641 427.86466333 422.94066771 430.30059155 419.99951172 433.22753906 C419.492034 433.73530884 418.98455627 434.24307861 418.46170044 434.76623535 C416.78906131 436.43748509 415.10945783 438.10154556 413.4296875 439.765625 C412.26625722 440.92532377 411.10326874 442.08546592 409.94070435 443.24603271 C406.884018 446.29509352 403.82137256 449.33809963 400.75744629 452.37988281 C397.63024835 455.48659913 394.50872493 458.59900545 391.38671875 461.7109375 C385.2633512 467.81287417 379.1336764 473.90842598 373 480 C369.92092325 478.64068768 367.95618386 477.1484844 365.69458008 474.66772461 C365.06904739 473.9903978 364.44351471 473.31307098 363.79902649 472.61521912 C363.12929306 471.88497025 362.45955963 471.15472137 361.76953125 470.40234375 C360.31280199 468.86179674 358.85373843 467.32345432 357.39257812 465.78710938 C355.10238733 463.37418176 352.82703912 460.95349192 350.58911133 458.49194336 C341.10691186 447.43184831 341.10691186 447.43184831 327.98356628 442.59877014 C325.8547827 442.58284437 323.77582842 442.6790031 321.65405273 442.84301758 C314.89116792 443.1335591 310.23503136 439.83769246 305.1875 435.6875 C300.26737189 429.64277118 296.93147735 424.61899296 297.08657029 416.66667116 C297.08280317 408.040244 294.98809152 403.08847448 288.8041777 396.86795807 C287.74661693 395.85317343 286.68836679 394.83910682 285.62950134 393.82568359 C284.51173188 392.70136112 283.3972694 391.57374303 282.28582388 390.44316864 C279.24252723 387.36652846 276.15479468 384.33830524 273.05732715 381.31634283 C269.71783321 378.04190293 266.42207815 374.72393092 263.12068176 371.41116333 C257.40182828 365.68446173 251.65625507 359.98576697 245.89137077 354.30541992 C237.55657442 346.09276718 229.26373362 337.83877838 220.98039598 329.574265 C207.53881979 316.16548135 194.06412109 302.79050553 180.56811523 289.43652344 C167.46164422 276.4678339 154.37109268 263.48341135 141.30151367 250.47753906 C140.49528759 249.67525383 139.68906151 248.8729686 138.85840433 248.0463717 C134.81371797 244.02126154 130.76934131 239.99584036 126.72511852 235.97026443 C93.19795838 202.59849007 59.61681503 169.2814427 26 136 C-1.92766011 163.574944 -20.69475281 212.50143926 -21.09765625 251.5 C-21.09113437 253.0000316 -21.07939719 254.5000494 -21.0625 256 C-21.05798828 256.77472656 -21.05347656 257.54945313 -21.04882812 258.34765625 C-21.03719758 260.23180524 -21.01926906 262.11591365 -21 264 C-20.06800781 263.46890625 -19.13601562 262.9378125 -18.17578125 262.390625 C-10.0127352 257.83297815 -2.13921137 254.25298107 7 252 C8.04933716 251.73956909 8.04933716 251.73956909 9.11987305 251.47387695 C15.62860885 250.40297281 22.33628991 250.69317433 28.91772461 250.64990234 C30.75541887 250.6333801 32.59304986 250.60613942 34.43041992 250.56787109 C46.37336591 250.32096075 55.21925041 250.424717 64.8125 258.3125 C69.90291347 264.56643655 73.11199074 269.78714222 73.15390015 277.98805237 C73.16250061 279.23984787 73.17110107 280.49164337 73.17996216 281.78137207 C73.18439735 283.1713863 73.18869571 284.56140098 73.19287109 285.95141602 C73.20077381 287.41344904 73.20904287 288.87548012 73.21765137 290.33750916 C73.2438604 295.14295594 73.25918179 299.94841136 73.2734375 304.75390625 C73.27879838 306.41012006 73.28417589 308.06633382 73.28956985 309.72254753 C73.31120043 316.6153529 73.32993447 323.50815595 73.34119225 330.40098667 C73.35741298 340.26673217 73.39054282 350.13208268 73.44759309 359.99767929 C73.48636643 366.94051376 73.50583388 373.88324293 73.51111281 380.82618278 C73.5147573 384.9693038 73.52668102 389.11200341 73.55921555 393.25500679 C73.58942545 397.15806056 73.59556262 401.06044087 73.58383179 404.96358681 C73.5836121 406.38975289 73.59182995 407.8159514 73.60948563 409.24200821 C73.72954391 419.50472342 72.27838354 426.79656056 65.6875 434.8125 C58.44487699 440.70765827 52.883756 443.15281644 43.484375 443.23828125 C42.63635315 443.246353 41.7883313 443.25442474 40.91461182 443.26274109 C39.11236611 443.27658086 37.3100942 443.2873035 35.5078125 443.29516602 C33.69067538 443.30658747 31.87356911 443.32687944 30.05664062 443.35668945 C15.1942022 443.60031367 1.99635025 442.31351678 -11.375 435.1875 C-12.03999512 434.84420654 -12.70499023 434.50091309 -13.39013672 434.1472168 C-18.73323943 431.31264668 -23.441544 427.97747632 -28 424 C-28.96808594 423.22785156 -29.93617187 422.45570313 -30.93359375 421.66015625 C-40.34114748 413.80726561 -46.94770488 402.44489955 -51 391 C-51.33319244 390.11740509 -51.66638489 389.23481018 -52.00967407 388.32546997 C-56.1591862 375.4660504 -55.58840127 362.29541494 -55.53730202 348.91553211 C-55.52701894 345.36878635 -55.53661183 341.82207744 -55.54284668 338.27532959 C-55.55009073 332.31091798 -55.54063335 326.34670545 -55.52148438 320.38232422 C-55.49984207 313.56423316 -55.5066873 306.74662318 -55.52879 299.92854428 C-55.54718286 294.01020599 -55.54938466 288.09200923 -55.53903532 282.17365146 C-55.53291354 278.66798769 -55.53163764 275.16254642 -55.54518127 271.6568985 C-55.63289086 245.31187279 -52.62710893 220.25523546 -45 195 C-44.62367432 193.74727295 -44.62367432 193.74727295 -44.23974609 192.46923828 C-35.67065855 164.64587943 -20.86479471 133.86479471 0 113 C-0.14895107 108.81683582 -3.16700428 106.43077831 -5.97875977 103.68066406 C-6.49584503 103.16314072 -7.0129303 102.64561737 -7.54568481 102.1124115 C-9.25390966 100.40627403 -10.97250895 98.71100408 -12.69140625 97.015625 C-13.87890296 95.83372441 -15.06573835 94.65115904 -16.25193787 93.46795654 C-19.3738629 90.35747898 -22.50469244 87.25611608 -25.63745117 84.15655518 C-28.83338097 80.99132819 -32.0208219 77.81757832 -35.20898438 74.64453125 C-41.46436954 68.42130852 -47.72919325 62.20768022 -54 56 C-52.41219641 52.13533667 -49.94066771 49.69940845 -46.99951172 46.77246094 C-46.492034 46.26469116 -45.98455627 45.75692139 -45.46170044 45.23376465 C-43.78906131 43.56251491 -42.10945783 41.89845444 -40.4296875 40.234375 C-39.26625722 39.07467623 -38.10326874 37.91453408 -36.94070435 36.75396729 C-33.884018 33.70490648 -30.82137256 30.66190037 -27.75744629 27.62011719 C-24.63024835 24.51340087 -21.50872493 21.40099455 -18.38671875 18.2890625 C-12.2633512 12.18712583 -6.1336764 6.09157402 0 0 Z M87 84 C91.55526045 89.46139905 96.3870124 94.52854886 101.42146301 99.54844666 C102.25484513 100.38338876 103.08822724 101.21833086 103.94686335 102.07857424 C106.24409469 104.37908879 108.54353474 106.67736793 110.8439616 108.97468626 C113.33036075 111.45881409 115.81386984 113.94582849 118.29776001 116.4324646 C123.15597432 121.2951159 128.01687636 126.15507174 132.87876103 131.01405298 C136.82781606 134.9608474 140.77589125 138.90861949 144.72327232 142.85708809 C145.28556899 143.41953799 145.84786566 143.98198789 146.42720162 144.56148173 C147.56949993 145.70409976 148.71179598 146.84672003 149.85408982 147.98934252 C160.55275869 158.6908597 171.25448517 169.38931499 181.95726659 180.08671892 C191.14830043 189.27327799 200.336699 198.46246602 209.52319336 207.65356445 C220.19226962 218.32798533 230.86295713 229.00079122 241.53624362 239.67100245 C242.67276668 240.80720695 243.80928765 241.94341355 244.9458065 243.07962227 C245.50501025 243.63867174 246.064214 244.19772121 246.64036331 244.77371157 C250.58879604 248.72127935 254.53606408 252.67000945 258.48288918 256.61918449 C263.28533102 261.42442294 268.08953418 266.22789189 272.89604542 271.02906 C275.35007145 273.48044825 277.80327323 275.93264711 280.2543354 278.38699913 C282.90508208 281.04045286 285.55884824 283.69084793 288.2134552 286.34043884 C288.99631214 287.12552651 289.77916909 287.91061417 290.58574897 288.71949238 C291.29116913 289.42230479 291.99658929 290.1251172 292.72338581 290.84922695 C293.33641947 291.46209826 293.94945313 292.07496957 294.58106357 292.70641273 C295.80315061 294.11228525 295.80315061 294.11228525 297 294 C297.00410889 293.38592285 297.00821777 292.7718457 297.01245117 292.13916016 C297.27987743 269.35444331 297.27987743 269.35444331 305.1875 259.1875 C314.77888046 251.72753742 323.25242815 251.2353507 335.02026367 251.40307617 C337.66499977 251.43720961 340.30634783 251.4237423 342.95117188 251.40429688 C356.90394483 251.41402319 369.34758147 253.35848236 381.75 260.1875 C386.74470858 262.88206948 386.74470858 262.88206948 392 265 C394.23423327 216.40542627 373.48371569 166.55405803 341.3125 130.6875 C340.57386719 129.88699219 339.83523438 129.08648437 339.07421875 128.26171875 C337.19878414 126.21675333 335.40967467 124.12380525 333.625 122 C301.24223966 85.01235172 248.67249829 62.95923175 200.29296875 59.6484375 C160.42093031 57.35052844 122.35664934 65.47537255 87 84 Z " fill="#BBBBBB" transform="translate(71,21)"/>
</svg>
