<?xml version="1.0" encoding="UTF-8"?>
<svg version="1.1" xmlns="http://www.w3.org/2000/svg" width="512" height="512">
<path d="M0 0 C20.43510919 17.36393671 32.94828488 39.73688416 36.125 66.4375 C36.40785371 72.24960477 36.40942811 78.05201954 36.3996582 83.86987305 C36.40401428 85.59773477 36.40920039 87.32559456 36.41514587 89.05345154 C36.42845341 93.71491279 36.4291236 98.37629255 36.42658257 103.03776908 C36.42550685 106.94619666 36.43041172 110.85460815 36.435188 114.76303226 C36.44625554 123.99494734 36.44673668 133.22682174 36.44067383 142.45874023 C36.43464133 151.94152391 36.44693303 161.42415894 36.4682439 170.90691727 C36.48593604 179.08401224 36.49184916 187.26106022 36.48860615 195.43817359 C36.48680463 200.3061562 36.48931495 205.17403286 36.50332069 210.04199791 C36.51601839 214.62632036 36.51384374 219.21041358 36.50090981 223.79473305 C36.49856989 225.46305041 36.50118404 227.13138451 36.50953293 228.79968262 C36.56824685 241.45978761 35.98217732 254.43097462 31.34375 266.3671875 C30.75569712 268.38652866 30.75569712 268.38652866 31.125 270.4375 C33.75930736 274.39054415 37.10418602 277.40242516 40.625 280.5625 C42.44985575 282.27136916 44.27281541 283.98226565 46.09375 285.6953125 C47.39892578 286.9023584 47.39892578 286.9023584 48.73046875 288.13378906 C51.77207128 291.06002901 54.41591907 294.20546357 57.125 297.4375 C57.785 297.7675 58.445 298.0975 59.125 298.4375 C59.40601563 297.5609375 59.68703125 296.684375 59.9765625 295.78125 C61.0184667 292.7476786 62.20664111 289.87021188 63.5 286.9375 C73.0515429 264.09807536 73.56470165 241.49661489 73.63623047 217.10839844 C73.65196117 213.39499927 73.6849347 209.68202151 73.71875 205.96875 C73.71572876 204.84359985 73.71270752 203.71844971 73.70959473 202.5592041 C73.78398947 194.71870967 74.55930833 187.46856526 79.4375 181.0625 C84.10922596 176.49941883 88.6252473 174.7679959 95.125 174.4375 C101.93636512 174.99402362 106.62176405 177.27346312 111.125 182.4375 C113.96900913 187.17751522 115.24250262 191.33620748 115.27026367 196.82519531 C115.27967484 198.12126961 115.27967484 198.12126961 115.28927612 199.44352722 C115.29110397 200.84046562 115.29110397 200.84046562 115.29296875 202.265625 C115.29724884 203.23869095 115.30152893 204.2117569 115.30593872 205.21430969 C115.31595499 208.37208623 115.31598868 211.52971055 115.3125 214.6875 C115.31156342 215.75894257 115.31062683 216.83038513 115.30966187 217.93429565 C115.2654749 241.1085107 114.2495604 262.95935327 108.125 285.4375 C107.84897949 286.46230469 107.84897949 286.46230469 107.56738281 287.5078125 C103.72557003 301.31277378 97.44448917 315.73641708 89.125 327.4375 C90.51185087 330.5650405 92.11744708 332.67062176 94.5456543 335.06933594 C95.59265755 336.11127106 95.59265755 336.11127106 96.66081238 337.17425537 C97.79357353 338.28682709 97.79357353 338.28682709 98.94921875 339.421875 C99.72884476 340.19629944 100.50847076 340.97072388 101.3117218 341.76861572 C103.80728362 344.24636979 106.30940278 346.71736043 108.8125 349.1875 C111.29691732 351.64416521 113.77981747 354.10231455 116.25971985 356.5635376 C117.80181301 358.09352399 119.34657039 359.62083153 120.89445496 361.1449585 C124.25038053 364.47017743 127.50981338 367.82073483 130.59326172 371.40136719 C134.55267936 375.99818234 138.8189337 380.25701774 143.12109375 384.53125 C143.95463882 385.36338013 144.7881839 386.19551025 145.64698792 387.05285645 C148.28313262 389.68344935 150.92275105 392.31052441 153.5625 394.9375 C155.36155979 396.73153855 157.1603902 398.52580715 158.95898438 400.3203125 C163.34500812 404.69537125 167.73388142 409.06755512 172.125 413.4375 C170.53252446 417.37217549 167.81837631 420.01327776 164.84912109 422.94042969 C164.31238266 423.47746017 163.77564423 424.01449066 163.22264099 424.5677948 C161.45260717 426.33643859 159.67560143 428.09789824 157.8984375 429.859375 C156.66774656 431.08633466 155.4374973 432.31373749 154.20767212 433.54156494 C150.97343484 436.76817488 147.73323592 439.98873291 144.49176025 443.20806885 C141.18359466 446.49575672 137.88110054 449.78913068 134.578125 453.08203125 C128.09928921 459.53943298 121.61414131 465.99045568 115.125 472.4375 C112.28928869 471.14701266 110.23220686 469.79432416 108.03361511 467.59335327 C107.44924179 467.01317444 106.86486847 466.43299561 106.26278687 465.8352356 C105.63361359 465.20044281 105.00444031 464.56565002 104.35620117 463.91162109 C103.68411118 463.24142944 103.01202118 462.57123779 102.31956482 461.8807373 C100.09744943 459.66232808 97.8826218 457.43679456 95.66796875 455.2109375 C94.12140281 453.66317889 92.5744664 452.11579038 91.0271759 450.5687561 C87.78185566 447.32187093 84.53992383 444.07165248 81.30053711 440.81884766 C77.16322791 436.6646126 73.01943136 432.51692585 68.87327099 428.37152672 C65.67552308 425.17350571 62.48039747 421.97287553 59.28612709 418.77138138 C57.76020783 417.24229498 56.23369543 415.71380025 54.70656395 414.18592453 C52.5625187 412.03969122 50.42180978 409.89018375 48.28198242 407.73974609 C47.34733154 406.80577499 47.34733154 406.80577499 46.39379883 405.85293579 C41.3294913 400.7521944 36.58766998 395.40719028 32 389.875 C30.231221 388.18538602 30.231221 388.18538602 27.96875 388.6171875 C24.31473185 389.6712312 21.09741101 391.36044491 17.75 393.125 C-0.79493005 402.59163611 -21.79865348 410.4375 -42.875 410.4375 C-42.875 423.6375 -42.875 436.8375 -42.875 450.4375 C-36.97625 450.39109375 -31.0775 450.3446875 -25 450.296875 C-21.25388855 450.27642696 -17.50784631 450.25717053 -13.76171875 450.2421875 C-7.82098019 450.21831397 -1.8804892 450.19012912 4.06005859 450.13574219 C8.85169176 450.09215037 13.64305927 450.06833468 18.43487549 450.05799103 C20.25925882 450.05062355 22.08362829 450.03623661 23.90789795 450.01457977 C26.47146559 449.98536799 29.03394787 449.98155133 31.59765625 449.98339844 C32.34500534 449.96901733 33.09235443 449.95463623 33.86235046 449.93981934 C40.20916956 449.98901634 45.25635611 452.06173121 50.1484375 456.11328125 C54.44567788 461.31716483 56.43951774 466.00620811 56.0625 472.875 C55.22267587 478.47700868 53.03438638 483.17269249 48.50753689 486.69661176 C43.30951635 490.23241837 39.46705323 491.16045796 33.24438477 491.07241821 C32.3856479 491.08021817 31.52691103 491.08801812 30.64215183 491.09605443 C27.78312517 491.11589585 24.92544126 491.10024094 22.06640625 491.08447266 C20.00925931 491.09125226 17.95211843 491.10015732 15.89498901 491.11102295 C10.32057131 491.13378179 4.74661724 491.12499383 -0.82780838 491.10912752 C-6.66703777 491.09645096 -12.506228 491.10821353 -18.34545898 491.11605835 C-28.15062573 491.12514976 -37.95560406 491.11318021 -47.76074219 491.08935547 C-59.0898381 491.06214533 -70.41848407 491.07095984 -81.74756908 491.0984875 C-91.48199656 491.12119192 -101.21628874 491.12437207 -110.95073414 491.11129415 C-116.76141038 491.10350704 -122.57187526 491.10243789 -128.38253784 491.11897659 C-133.84596651 491.13344131 -139.30881621 491.12336247 -144.77218246 491.09450531 C-146.77484044 491.08790528 -148.77754731 491.08977359 -150.7801857 491.10081863 C-153.51890534 491.11452846 -156.25578188 491.09729309 -158.99438477 491.07241821 C-159.78272422 491.08357182 -160.57106367 491.09472543 -161.3832922 491.10621703 C-167.32133026 491.00194269 -171.21190839 489.06747676 -175.875 485.4375 C-179.82441566 481.31199574 -181.69358073 476.40014816 -181.99609375 470.73046875 C-181.65546658 464.28052847 -179.79272029 459.875962 -175 455.5 C-169.53540437 450.96760009 -164.66918107 450.14423822 -157.68823242 450.21044922 C-156.47281769 450.21001114 -156.47281769 450.21001114 -155.23284912 450.20956421 C-152.56527855 450.2109531 -149.89799029 450.22649348 -147.23046875 450.2421875 C-145.37673597 450.2459192 -143.52300121 450.24876543 -141.66926575 450.25076294 C-136.79813154 450.25838705 -131.92711722 450.27802506 -127.05603027 450.3001709 C-121.20730314 450.32425936 -115.35853584 450.33341613 -109.50977325 450.34507751 C-100.6314322 450.36445014 -91.75335405 450.40278126 -82.875 450.4375 C-82.875 437.2375 -82.875 424.0375 -82.875 410.4375 C-87.165 410.1075 -91.455 409.7775 -95.875 409.4375 C-99.37267646 408.79054584 -102.74840705 408.10777144 -106.1875 407.25 C-107.08629883 407.02932861 -107.98509766 406.80865723 -108.91113281 406.58129883 C-146.17984703 397.11186798 -180.71017676 374.16546516 -203.875 343.4375 C-205.06609375 341.86162109 -205.06609375 341.86162109 -206.28125 340.25390625 C-212.60161129 331.73345027 -217.96666635 322.83658569 -222.875 313.4375 C-223.19597656 312.82825684 -223.51695312 312.21901367 -223.84765625 311.59130859 C-239.51922992 281.40385784 -241.02192244 248.23283682 -241.1875 214.9375 C-241.19703705 213.88868652 -241.2065741 212.83987305 -241.21640015 211.75927734 C-241.2402745 208.72471341 -241.24254463 205.69089091 -241.23828125 202.65625 C-241.25195236 201.29022644 -241.25195236 201.29022644 -241.26589966 199.89660645 C-241.20467664 191.27471595 -239.05951339 184.62201339 -232.875 178.4375 C-227.46337268 175.02582191 -222.09949815 173.78377373 -215.8125 175.125 C-209.13540301 177.09719274 -205.42998484 180.52113309 -201.85546875 186.33984375 C-199.97435445 190.36437912 -199.74981159 194.40486594 -199.7331543 198.79663086 C-199.72260262 200.37129372 -199.72260262 200.37129372 -199.71183777 201.97776794 C-199.70767349 203.10787796 -199.70350922 204.23798798 -199.69921875 205.40234375 C-199.67598016 207.83789888 -199.65186133 210.27344574 -199.62695312 212.70898438 C-199.5921966 216.5149456 -199.56269467 220.32061017 -199.54907227 224.12670898 C-199.36817644 266.47581337 -188.6755969 301.60819375 -158.5 332.3125 C-142.37503923 348.13865958 -121.96498649 361.00207571 -99.875 366.4375 C-99.11799805 366.62924805 -98.36099609 366.82099609 -97.58105469 367.01855469 C-68.59099196 374.06211729 -31.7188288 373.78240296 -5.14819336 358.33984375 C-4.06803955 357.71207031 -2.98788574 357.08429688 -1.875 356.4375 C-5.56623483 352.54832332 -9.28314682 348.68633123 -13.02612305 344.84692383 C-14.29521821 343.53762742 -15.55703722 342.22123688 -16.8112793 340.89770508 C-18.61716051 338.99463359 -20.44780262 337.11873492 -22.28515625 335.24609375 C-23.11685081 334.35246376 -23.11685081 334.35246376 -23.96534729 333.44078064 C-25.54655013 331.85780858 -26.93856898 330.55973502 -28.875 329.4375 C-32.53735263 329.37907602 -32.53735263 329.37907602 -35.875 330.4375 C-37.09574219 330.68628906 -38.31648438 330.93507813 -39.57421875 331.19140625 C-40.21552734 331.32401855 -40.85683594 331.45663086 -41.51757812 331.59326172 C-67.95357393 336.85142421 -94.58642072 332.54775914 -117.33203125 317.9296875 C-123.06864436 314.0324725 -127.95676926 309.2974406 -132.875 304.4375 C-133.59042969 303.79425781 -134.30585938 303.15101563 -135.04296875 302.48828125 C-147.7451761 290.80022219 -155.89550609 274.01582833 -159.875 257.4375 C-160.06827881 256.63393066 -160.26155762 255.83036133 -160.46069336 255.00244141 C-161.94843739 247.48019658 -161.83368854 240.44868292 -161.48046875 232.8203125 C-159.23869345 206.5984998 -159.23869345 206.5984998 -169.29051208 183.59716797 C-173.42287421 179.41686547 -178.05771105 175.84349759 -182.98486328 172.64770508 C-185.45712412 170.75706668 -187.13035973 169.08945265 -189.11703491 166.74406433 C-192.55311397 162.76464784 -196.16043326 159.02275154 -199.89257812 155.32226562 C-200.55535263 154.66095139 -201.21812714 153.99963715 -201.90098572 153.31828308 C-203.32609348 151.89695143 -204.75235418 150.47677499 -206.17967224 149.05766296 C-208.44450817 146.80570944 -210.7061015 144.55054304 -212.96691895 142.29455566 C-217.76680066 137.50604507 -222.57060304 132.72147981 -227.375 127.9375 C-232.9468054 122.389373 -238.516949 116.83959855 -244.08287048 111.28556824 C-246.30030078 109.07457313 -248.52074414 106.86663559 -250.74133301 104.65881348 C-252.11351207 103.29027027 -253.48554907 101.92158459 -254.85742188 100.55273438 C-255.46645859 99.94886398 -256.0754953 99.34499359 -256.70298767 98.7228241 C-260.3992732 95.02698777 -263.87862465 91.19589812 -267.29711342 87.24221039 C-269.17500873 85.09436452 -271.13737038 83.0548009 -273.15795898 81.04101562 C-273.91821884 80.2808313 -274.6784787 79.52064697 -275.46177673 78.73742676 C-276.25685135 77.94751343 -277.05192596 77.1576001 -277.87109375 76.34375 C-278.70463882 75.51161987 -279.5381839 74.67948975 -280.39698792 73.82214355 C-283.03313262 71.19155065 -285.67275105 68.56447559 -288.3125 65.9375 C-290.11155979 64.14346145 -291.9103902 62.34919285 -293.70898438 60.5546875 C-298.09500812 56.17962875 -302.48388142 51.80744488 -306.875 47.4375 C-305.28252446 43.50282451 -302.56837631 40.86172224 -299.59912109 37.93457031 C-299.06238266 37.39753983 -298.52564423 36.86050934 -297.97264099 36.3072052 C-296.20260717 34.53856141 -294.42560143 32.77710176 -292.6484375 31.015625 C-291.41774656 29.78866534 -290.1874973 28.56126251 -288.95767212 27.33343506 C-285.72343484 24.10682512 -282.48323592 20.88626709 -279.24176025 17.66693115 C-275.93359466 14.37924328 -272.63110054 11.08586932 -269.328125 7.79296875 C-262.84928921 1.33556702 -256.36414131 -5.11545568 -249.875 -11.5625 C-247.03928869 -10.27201266 -244.98220686 -8.91932416 -242.78361511 -6.71835327 C-242.19924179 -6.13817444 -241.61486847 -5.55799561 -241.01278687 -4.9602356 C-240.06902695 -4.00804642 -240.06902695 -4.00804642 -239.10620117 -3.03662109 C-238.09806618 -2.03133362 -238.09806618 -2.03133362 -237.06956482 -1.0057373 C-234.84744943 1.21267192 -232.6326218 3.43820544 -230.41796875 5.6640625 C-228.87140281 7.21182111 -227.3244664 8.75920962 -225.7771759 10.3062439 C-222.53185566 13.55312907 -219.28992383 16.80334752 -216.05053711 20.05615234 C-211.91322791 24.2103874 -207.76943136 28.35807415 -203.62327099 32.50347328 C-200.42552308 35.70149429 -197.23039747 38.90212447 -194.03612709 42.10361862 C-192.51020783 43.63270502 -190.98369543 45.16119975 -189.45656395 46.68907547 C-187.3125187 48.83530878 -185.17180978 50.98481625 -183.03198242 53.13525391 C-182.40888184 53.75790131 -181.78578125 54.38054871 -181.14379883 55.02206421 C-177.43580954 58.75672968 -173.91579002 62.606647 -170.4903307 66.60242271 C-168.0753188 69.34596835 -165.49059175 71.88570317 -162.875 74.4375 C-162.71644531 73.179375 -162.55789062 71.92125 -162.39453125 70.625 C-158.40876124 40.6610761 -146.93975589 16.57918335 -122.875 -2.5625 C-86.12497265 -29.81146319 -35.55251392 -28.48076047 0 0 Z " fill="#BBBBBB" transform="translate(318.875,21.5625)"/>
</svg>
